Coordinates
version=1
nRows=5
nColumns=40
inDegrees=yes

Units are S.I. units (second, meters, Newtons, ...)
If the header above contains a line with 'inDegrees', this indicates whether rotational values are in degrees (yes) or radians (no).

endheader
time	pelvis_tilt	pelvis_list	pelvis_rotation	pelvis_tx	pelvis_ty	pelvis_tz	hip_flexion_r	hip_adduction_r	hip_rotation_r	knee_angle_r	knee_angle_r_beta	ankle_angle_r	subtalar_angle_r	mtp_angle_r	hip_flexion_l	hip_adduction_l	hip_rotation_l	knee_angle_l	knee_angle_l_beta	ankle_angle_l	subtalar_angle_l	mtp_angle_l	lumbar_extension	lumbar_bending	lumbar_rotation	arm_flex_r	arm_add_r	arm_rot_r	elbow_flex_r	pro_sup_r	wrist_flex_r	wrist_dev_r	arm_flex_l	arm_add_l	arm_rot_l	elbow_flex_l	pro_sup_l	wrist_flex_l	wrist_dev_l
      1.20000000	      7.53249367	      2.04871085	     -0.72489215	     -0.30442121	      0.97655724	     -0.78699489	      0.06700519	      2.57747931	    -14.75967624	     18.76927967	      0.32758573	     -3.06243518	      0.00000000	      0.00000000	     28.38082114	     -4.55957416	     -4.26568138	     15.71608230	      0.27429738	    -18.21740896	      0.00000000	      0.00000000	    -10.35033851	      1.15644188	      0.74546966	     64.95404111	    -18.33392155	     40.49516096	     65.13496455	     86.85638444	      0.00000000	      0.00000000	     65.84432582	     -7.44206744	     38.29295829	     56.22835636	     83.91319854	      0.00000000	      0.00000000
      1.20500000	      7.53145890	      2.03755800	     -0.72632850	     -0.30442921	      0.97648675	     -0.78700272	      0.10188702	      2.57528619	    -14.73473594	     18.83478416	      0.32872900	     -3.03415285	      0.00000000	      0.00000000	     28.39336664	     -4.55682091	     -4.28683330	     15.78571224	      0.27551265	    -18.32036103	      0.00000000	      0.00000000	    -10.35630935	      1.14948842	      0.74728882	     65.09047614	    -18.38925675	     40.69579956	     65.10593107	     86.91969967	      0.00000000	      0.00000000	     65.91311275	     -7.44871217	     38.32828948	     56.21949053	     83.74669481	      0.00000000	      0.00000000
      1.21000000	      7.50892075	      2.02767143	     -0.71347048	     -0.30450052	      0.97637978	     -0.78706577	      0.16211667	      2.57276504	    -14.79028547	     18.90594341	      0.32997096	     -3.00128943	      0.00000000	      0.00000000	     28.40500622	     -4.54545876	     -4.30346846	     15.82290620	      0.27616181	    -18.27448924	      0.00000000	      0.00000000	    -10.34715003	      1.15137325	      0.73235410	     65.19177317	    -18.39714681	     40.75085775	     65.05788974	     86.85216479	      0.00000000	      0.00000000	     65.98956117	     -7.43823791	     38.36855174	     56.15298591	     83.93337413	      0.00000000	      0.00000000
      1.21500000	      7.50526433	      2.02065188	     -0.68037215	     -0.30455774	      0.97629794	     -0.78712761	      0.18053230	      2.57430686	    -14.84111759	     18.94298484	      0.33061746	     -2.99196117	      0.00000000	      0.00000000	     28.41106373	     -4.51980898	     -4.27921801	     15.85976918	      0.27680519	    -18.29676157	      0.00000000	      0.00000000	    -10.36384721	      1.15100793	      0.70958865	     65.29271408	    -18.43824933	     40.84653383	     65.04223653	     86.84764921	      0.00000000	      0.00000000	     66.07553290	     -7.43022226	     38.39210269	     56.14437286	     83.92339540	      0.00000000	      0.00000000
      1.22000000	      7.54204152	      2.04125740	     -0.67497662	     -0.30461639	      0.97631482	     -0.78717686	      0.16361957	      2.54180807	    -14.85870426	     18.99429184	      0.33151293	     -2.96759302	      0.00000000	      0.00000000	     28.34418276	     -4.48786558	     -4.36408488	     15.88515268	      0.27724822	    -18.34008897	      0.00000000	      0.00000000	    -10.41154886	      1.12998061	      0.63863430	     65.42170407	    -18.31827513	     40.84212966	     64.82062093	     87.17660416	      0.00000000	      0.00000000	     66.11965594	     -7.53659278	     38.60363330	     56.29932708	     79.56191500	      0.00000000	      0.00000000
